<svg width="512" height="512" viewBox="0 0 512 512" fill="none" xmlns="http://www.w3.org/2000/svg">
<rect width="512" height="512" fill="white"/>
<path d="M162.638 346.482C163.478 344.628 165.934 344.234 167.297 345.744C172.885 351.934 177.543 357.387 184.278 363.312C226.114 400.114 285.708 405.007 331.611 372.391C342.872 364.392 349.719 361.194 358.048 352.75C359.825 350.948 363.018 351.992 363.228 354.513L365.105 377.039C365.178 377.909 364.84 378.772 364.196 379.361C300.407 437.75 212.55 431.744 154.035 369.717C153.25 368.885 153.047 367.653 153.518 366.611L162.638 346.482Z" fill="#4B82F5"/>
<path fill-rule="evenodd" clip-rule="evenodd" d="M197.663 227.187C212.66 227.345 230.061 224.665 242.363 233.844C248.801 238.641 252.899 245.633 253.747 253.254C254.311 258.671 254.05 267.596 254.05 273.293L254.197 300.008C254.192 310.72 255.141 319.952 247.039 328.78C240.464 335.948 233.334 338.492 223.422 339.36C212.111 339.782 199.344 339.296 187.853 339.462C178.633 339.59 166.946 339.83 157.927 338.783C152.723 337.927 147.83 336.031 143.731 333.03C129.801 322.809 131.558 308.844 131.549 293.95L131.42 271.429C131.424 265.166 130.994 258.077 132.2 251.938C135.084 237.215 146.82 228.686 162.47 227.327C173.483 226.706 186.53 227.069 197.663 227.187ZM223.931 249.348C206.86 248.535 189.135 249.521 172.004 249.14C168.639 249.065 165.109 249.136 161.745 249.344C159.883 250.346 156.073 252.624 155.968 254.88C154.588 284.359 155.794 278.808 155.619 308.359C155.596 312.092 158.573 317.143 162.777 317.36C179.949 318.245 197.363 317.474 214.58 317.687C217.639 317.725 220.997 317.751 224.019 316.988C226.342 316.402 228.206 314.762 229.238 312.541C230.497 309.833 230.22 305.602 230.17 302.374L230.033 273.122C230.002 266.587 230.111 260.051 229.988 253.517C229.936 250.75 226.615 249.477 223.931 249.348Z" fill="#4B82F5"/>
<path d="M230.826 150.066C233.81 170.644 218.85 189.647 197.416 192.51C175.984 195.371 156.741 181.05 152.919 160.597C149.097 140.144 162.148 120.246 182.665 115.079C203.182 109.912 224.359 121.832 230.826 150.066Z" fill="#4B82F5"/>
<path d="M277.375 228.58C288.064 228.48 298.767 228.514 309.461 228.553C320.157 228.592 330.843 228.636 341.513 228.558C343.987 228.54 346.388 228.542 348.908 228.74C380.245 231.212 389.371 270.563 363.487 286.465H363.486C354.124 292.206 345.464 291.355 335.466 291.328L313.62 291.268C308.642 291.255 303.001 290.994 298.458 292.278C296.227 292.909 294.386 293.886 293.064 295.353C291.76 296.801 290.853 298.848 290.694 301.833V301.84C290.512 304.96 291.693 308.03 293.99 310.326C294.659 310.978 295.62 311.68 296.664 312.231C297.729 312.792 298.759 313.132 299.564 313.179L300.987 313.253C308.164 313.591 316.196 313.435 323.344 313.433H323.345L375.173 313.441C377.489 313.441 379.397 315.295 379.422 317.63C379.464 321.528 379.43 325.518 379.417 329.401C379.409 331.733 377.534 333.638 375.193 333.662C350.514 333.915 325.514 333.588 300.875 333.617C282.916 333.638 268.024 318.207 269.136 300.898L269.137 300.896C269.539 294.782 271.726 288.902 275.438 283.904L275.446 283.894C285.288 270.898 298.241 271.179 312.198 271.217H312.199L334.158 271.297L337.629 271.327C341.013 271.36 344.182 271.356 347.527 270.901L348.1 270.809C353.919 269.74 356.797 264.844 356.8 259.787C356.803 254.536 353.722 249.645 348.008 248.999C341.8 248.298 331.659 248.784 324.913 248.784H324.912L277.327 248.766C275.024 248.765 273.116 246.928 273.084 244.599C273.031 240.691 273.083 236.646 273.157 232.757C273.201 230.453 275.07 228.602 277.375 228.58Z" fill="#4B82F5" stroke="#4B82F5" stroke-width="2.84444"/>
</svg>
