<svg xmlns="http://www.w3.org/2000/svg" width="30" height="30" fill="none" viewBox="0 0 30 30"><g clip-path="url(#a)"><path fill="#b1b1b1" d="M23.75 12.5a3.75 3.75 0 0 1 3.75 3.75V20a3.75 3.75 0 0 1-3.75 3.75v1.207c0 1.325-1.545 2.05-2.562 1.2l-2.89-2.407H15A3.75 3.75 0 0 1 11.25 20v-3.75A3.75 3.75 0 0 1 15 12.5zM20 5a3.75 3.75 0 0 1 3.75 3.75V10h-10a5 5 0 0 0-5 5v5c0 1.305.5 2.495 1.32 3.385l-1.32.99c-1.03.773-2.5.038-2.5-1.25V21.25A3.75 3.75 0 0 1 2.5 17.5V8.75A3.75 3.75 0 0 1 6.25 5z"/></g><defs><clipPath id="a"><path fill="#fff" d="M0 0h30v30H0z"/></clipPath></defs></svg>