<svg xmlns="http://www.w3.org/2000/svg" width="30" height="30" fill="none" viewBox="0 0 30 30"><g clip-path="url(#a)"><path fill="#b1b1b1" d="M15 16.25c2.995 0 5.719.867 7.723 2.089 1 .612 1.855 1.331 2.472 2.112.607.77 1.055 1.69 1.055 2.674 0 1.056-.514 1.889-1.254 2.483-.7.562-1.623.934-2.605 1.194-1.972.522-4.605.698-7.391.698s-5.419-.175-7.391-.698c-.981-.26-1.905-.632-2.605-1.194-.741-.596-1.254-1.427-1.254-2.483 0-.984.447-1.904 1.055-2.674.618-.781 1.471-1.5 2.473-2.112C9.28 17.118 12.006 16.25 15 16.25M15 2.5A6.25 6.25 0 1 1 15 15a6.25 6.25 0 0 1 0-12.5"/></g><defs><clipPath id="a"><path fill="#fff" d="M0 0h30v30H0z"/></clipPath></defs></svg>