<svg xmlns="http://www.w3.org/2000/svg" width="12" height="16" fill="none" viewBox="0 0 12 16"><path fill="#222" fill-rule="evenodd" d="M2.745 3.25a3.25 3.25 0 0 1 6.5 0L9 7.25a3.25 3.25 0 0 1-6.5 0zm3.25-1.75a1.75 1.75 0 0 0-1.75 1.75L4 7.25a1.75 1.75 0 1 0 3.5 0l.245-4a1.75 1.75 0 0 0-1.75-1.75M.75 6.5a.75.75 0 0 1 .75.75 4.25 4.25 0 0 0 8.5 0 .75.75 0 1 1 1.5 0 5.75 5.75 0 0 1-5 5.701V14h2.25a.75.75 0 1 1 0 1.5h-6a.75.75 0 1 1 0-1.5H5v-1.049A5.75 5.75 0 0 1 0 7.25a.75.75 0 0 1 .75-.75" clip-rule="evenodd"/></svg>