<svg width="12" height="12" viewBox="0 0 12 12" fill="none" xmlns="http://www.w3.org/2000/svg">
<g clip-path="url(#clip0_1610_1175)">
<path d="M1.6375 7.648C1.2125 7.096 1 6.8195 1 6C1 5.18 1.2125 4.9045 1.6375 4.352C2.486 3.25 3.909 2 6 2C8.091 2 9.514 3.25 10.3625 4.352C10.7875 4.905 11 5.1805 11 6C11 6.82 10.7875 7.0955 10.3625 7.648C9.514 8.75 8.091 10 6 10C3.909 10 2.486 8.75 1.6375 7.648Z" stroke="#999999"/>
<path d="M7.5 6C7.5 6.39782 7.34196 6.77936 7.06066 7.06066C6.77936 7.34196 6.39782 7.5 6 7.5C5.60218 7.5 5.22064 7.34196 4.93934 7.06066C4.65804 6.77936 4.5 6.39782 4.5 6C4.5 5.60218 4.65804 5.22064 4.93934 4.93934C5.22064 4.65804 5.60218 4.5 6 4.5C6.39782 4.5 6.77936 4.65804 7.06066 4.93934C7.34196 5.22064 7.5 5.60218 7.5 6Z" stroke="#999999"/>
</g>
<defs>
<clipPath id="clip0_1610_1175">
<rect width="12" height="12" fill="white"/>
</clipPath>
</defs>
</svg>
