<svg xmlns="http://www.w3.org/2000/svg" width="19" height="19" fill="none" viewBox="0 0 19 19"><path stroke="#222" stroke-linecap="round" stroke-linejoin="round" stroke-width="1.517" d="M14.778 2.334H3.889c-.86 0-1.555.696-1.555 1.555v10.889c0 .86.696 1.556 1.555 1.556h10.889c.86 0 1.556-.697 1.556-1.556V3.889c0-.86-.697-1.555-1.556-1.555"/><path stroke="#222" stroke-linecap="round" stroke-linejoin="round" stroke-width="1.517" d="M7 8.555a1.556 1.556 0 1 0 0-3.11 1.556 1.556 0 0 0 0 3.11M16.334 11.667l-2.4-2.4a1.555 1.555 0 0 0-2.2 0l-7.067 7.066"/></svg>