<svg xmlns="http://www.w3.org/2000/svg" width="25" height="25" fill="none" viewBox="0 0 25 25"><path fill="#222" d="m7.15 18.079 2.201-.635L22.605 4.031a.57.57 0 0 0-.004-.8l-.793-.802a.554.554 0 0 0-.79-.004L7.797 15.803l-.65 2.275zM23.379.839l.793.804c1.095 1.108 1.105 2.897.02 3.995L10.535 19.46 5.83 20.815a1.126 1.126 0 0 1-1.388-.779 1.14 1.14 0 0 1-.002-.632l1.369-4.8L19.43.818a2.77 2.77 0 0 1 3.949.021M8.98 2.28c.62 0 1.122.509 1.122 1.136A1.13 1.13 0 0 1 8.98 4.553H4.49c-1.24 0-2.245 1.017-2.245 2.271v13.632c0 1.256 1.005 2.273 2.245 2.273h13.47c1.24 0 2.246-1.017 2.246-2.273v-4.543a1.13 1.13 0 0 1 1.123-1.136c.62 0 1.122.508 1.122 1.137v4.542c0 2.51-2.011 4.546-4.491 4.546H4.49c-2.48 0-4.49-2.035-4.49-4.546V6.824C0 4.315 2.01 2.28 4.49 2.28z"/></svg>