<svg xmlns="http://www.w3.org/2000/svg" width="18" height="15" fill="none" viewBox="0 0 18 15"><path fill="#999" d="m1.072 2.63.002.049v1.607h4.227a.9.9 0 0 0 .631-.262L7.28 2.68 5.934 1.333a.9.9 0 0 0-.632-.262H2.68a1.607 1.607 0 0 0-1.607 1.56M.002 4.877 0 4.82V2.68A2.68 2.68 0 0 1 2.679 0H5.3c.521 0 1.02.207 1.389.575l1.568 1.568h6.207a2.68 2.68 0 0 1 2.678 2.678v7.5A2.68 2.68 0 0 1 14.464 15H2.681a2.68 2.68 0 0 1-2.679-2.679zm1.072.481v6.964a1.607 1.607 0 0 0 1.607 1.608h11.783a1.61 1.61 0 0 0 1.607-1.608v-7.5a1.607 1.607 0 0 0-1.607-1.607H8.257L6.69 4.782a1.96 1.96 0 0 1-1.389.575z"/></svg>