<svg width="10" height="9" viewBox="0 0 10 9" fill="none" xmlns="http://www.w3.org/2000/svg">
<path fill-rule="evenodd" clip-rule="evenodd" d="M5 1C2.7015 1 1 2.5365 1 4.25C1 5.257 1.5705 6.186 2.521 6.798C2.89 7.036 2.9905 7.4995 3.007 7.909C3.3835 7.754 3.636 7.329 4.093 7.416C4.38467 7.47133 4.687 7.49933 5 7.5C7.2985 7.5 9 5.9635 9 4.25C9 2.5365 7.2985 1 5 1ZM0 4.25C0 1.8215 2.328 0 5 0C7.672 0 10 1.8215 10 4.25C10 6.6785 7.672 8.5 5 8.5C4.673 8.49967 4.3545 8.47383 4.0445 8.4225C3.998 8.459 3.918 8.525 3.8195 8.5945C3.535 8.795 3.1245 9 2.5 9C2.36739 9 2.24021 8.94732 2.14645 8.85355C2.05268 8.75979 2 8.63261 2 8.5C2 8.225 2.0715 7.883 1.953 7.622C0.7885 6.8615 0 5.649 0 4.25Z" fill="#999999"/>
</svg>
