<svg xmlns="http://www.w3.org/2000/svg" width="81" height="28" fill="none" viewBox="0 0 81 28"><path fill="#151515" d="M3.95 15.05q1.25.006 2.5-.002c.026 1.286-.085 2.74.055 4.02.068.625.754 1.334 1.425 1.354 1.21.035 2.45.021 3.672.021l7.234-.001 23.627.003c.681.737 1.173 1.35 1.94 2.025 4.086 3.594 9.906 4.072 14.388.887 1.295-.92 2.038-1.69 3.078-2.911 3.197-.048 6.507-.003 9.712-.003.018-1.255.007-2.538.01-3.795q1.255-.015 2.509 0l.002 3.793h5.554l1.339.006.005 2.498c-4.192.047-8.412-.02-12.606.009-1.768.012-3.592-.032-5.356.015-.324.336-.643.667-.986.985-6.283 5.843-14.985 5.223-20.729-.994-2.759-.032-5.576-.005-8.34-.005H16.978l-6.306-.001c-.742 0-2.664.049-3.301-.051a4 4 0 0 1-2.202-1.141c-1.292-1.31-1.229-2.554-1.226-4.225z"/><path fill="#151515" fill-rule="evenodd" d="M51.348.321c1.596.019 3.448-.29 4.757.766a3.3 3.3 0 0 1 1.212 2.232c.06.623.032 1.65.032 2.305l.001 7.142c0 1.232.1 2.293-.761 3.308-.7.825-1.46 1.117-2.514 1.217-1.204.048-2.563-.007-3.785.012-.981.014-2.225.042-3.185-.078a3.4 3.4 0 0 1-1.51-.662c-1.483-1.175-1.295-2.782-1.297-4.495L44.3 5.41c0-.72-.046-1.536.083-2.242.306-1.693 1.555-2.674 3.22-2.83 1.172-.071 2.56-.03 3.745-.017m2.796 2.55c-1.816-.094-3.702.02-5.525-.024-.358-.009-.735 0-1.093.023-.198.115-.603.377-.614.637-.147 3.39-.033 6.82-.052 10.219-.002.429.314 1.01.762 1.035 1.827.102 3.68.013 5.512.038.326.004.683.006 1.004-.033.73-.405.667-.696.67-1.475q.002-1.734 0-3.468l-.003-3.949c0-.688.009-1.376-.003-2.064-.008-.475-.27-.72-.658-.94" clip-rule="evenodd"/><path fill="#151515" d="M36.792.013c.794-.026 1.713-.003 2.516-.003.047 2.168.01 4.488.01 6.667l3.217.002q.009 1.254 0 2.51a262 262 0 0 0-3.217.007l-.006 8.74-2.522-.004-.007-3.79c-2.428 1.532-4.698 1.109-7.432 1.15-1.986.031-4.251.282-5.606-1.485a4.5 4.5 0 0 1-.845-1.912c-.132-.693-.102-2.91-.088-3.738.02-1.2-.083-3.314.063-4.433.226-.908.473-1.533 1.134-2.215C25.417.06 27.43.32 29.264.32l4.84.006v2.52c-2.292.034-4.594-.021-6.887-.004-1.304.01-1.882.74-1.888 1.997-.009 1.621.02 3.244 0 4.865-.04 1.597-.062 3.097 2.015 3.064 1.232-.005 2.497.012 3.725-.002 1.807-.02 3.538.239 4.954-1.149.984-.964.727-2.164.767-3.416.015-.472 0-.947 0-1.415z"/><path fill="#151515" fill-rule="evenodd" d="M6.034.023c3.63-.305 6.818 2.406 7.112 6.05s-2.416 6.833-6.048 7.118C3.48 13.477.316 10.77.022 7.142S2.418.328 6.034.023m4.544 6.02A4.033 4.033 0 0 0 6.03 2.595a4.04 4.04 0 0 0-3.437 4.562 4.033 4.033 0 0 0 4.548 3.448 4.04 4.04 0 0 0 3.437-4.562" clip-rule="evenodd"/><path fill="#151515" d="M65.858.325c3.055-.038 6.12.016 9.176-.008.339-.002.661-.002.998.026 4.113.345 5.3 5.815 1.913 8.025-1.227.798-2.348.682-3.742.678l-2.996-.01c-1.332-.003-3.246-.16-3.341 1.736-.028.515.156 1.02.509 1.394.213.222.593.458.891.476 1.04.064 2.234.038 3.274.038h7.492c.017.828.004 1.697.005 2.527-3.511.045-7.067-.006-10.58-.002-2.357.003-4.304-2.15-4.16-4.545.054-.85.34-1.668.828-2.365 1.283-1.8 2.956-1.77 4.885-1.764l3.013.011c.642.003 1.231.032 1.86-.06 1.941-.28 1.883-3.382.062-3.6-.866-.104-2.283-.033-3.19-.033l-6.907-.003a56 56 0 0 1 .01-2.521M15.332.01l2.514.005-.006 6.662 3.208-.001q.015 1.26.002 2.518a116 116 0 0 0-3.218.005q.016 1.716.013 3.432l.002 3.256H15.32zM60.015.016c.787-.03 1.722-.005 2.52-.005.042 2.072 0 4.282 0 6.366l-.001 11.556c-.835-.009-1.684 0-2.52 0z"/></svg>