<svg width="16" height="16" viewBox="0 0 16 16" fill="none" xmlns="http://www.w3.org/2000/svg">
<g clip-path="url(#clip0_1644_277)">
<path d="M13.3343 6H7.33431C6.59793 6 6.00098 6.59695 6.00098 7.33333V13.3333C6.00098 14.0697 6.59793 14.6667 7.33431 14.6667H13.3343C14.0707 14.6667 14.6676 14.0697 14.6676 13.3333V7.33333C14.6676 6.59695 14.0707 6 13.3343 6Z" stroke="black" stroke-width="1.14286"/>
<path d="M3.33398 10.0007H2.66732C2.3137 10.0007 1.97456 9.86017 1.72451 9.61013C1.47446 9.36008 1.33398 9.02094 1.33398 8.66732V2.66732C1.33398 2.3137 1.47446 1.97456 1.72451 1.72451C1.97456 1.47446 2.3137 1.33398 2.66732 1.33398H8.66732C9.02094 1.33398 9.36008 1.47446 9.61013 1.72451C9.86017 1.97456 10.0007 2.3137 10.0007 2.66732V3.33398" stroke="black" stroke-width="1.14286"/>
</g>
<defs>
<clipPath id="clip0_1644_277">
<rect width="16" height="16" fill="white"/>
</clipPath>
</defs>
</svg>
