<svg xmlns="http://www.w3.org/2000/svg" width="16" height="16" fill="none" viewBox="0 0 16 16"><path stroke="#467efc" stroke-linecap="round" stroke-linejoin="round" stroke-width="1.333" d="M8 5.333c3.314 0 6-.895 6-2s-2.686-2-6-2-6 .895-6 2 2.686 2 6 2"/><path stroke="#467efc" stroke-linecap="round" stroke-linejoin="round" stroke-width="1.333" d="M2 3.333v9.333c0 .53.632 1.04 1.757 1.415s2.652.585 4.243.585 3.117-.21 4.243-.585c1.125-.375 1.757-.884 1.757-1.415V3.333"/><path stroke="#467efc" stroke-linecap="round" stroke-linejoin="round" stroke-width="1.333" d="M2 8c0 .53.632 1.04 1.757 1.414C4.883 9.79 6.41 10 8 10s3.117-.21 4.243-.586C13.368 9.04 14 8.53 14 8"/></svg>