<svg xmlns="http://www.w3.org/2000/svg" width="16" height="16" fill="none" viewBox="0 0 16 16"><path stroke="#467efc" stroke-linecap="round" stroke-linejoin="round" stroke-width="1.333" d="M7.333 4a8.67 8.67 0 0 0 5.6-1.867.667.667 0 0 1 1.067.534v8a.667.667 0 0 1-1.067.533 8.67 8.67 0 0 0-5.6-1.867h-4A1.333 1.333 0 0 1 2 8V5.333A1.333 1.333 0 0 1 3.333 4z"/><path stroke="#467efc" stroke-linecap="round" stroke-linejoin="round" stroke-width="1.333" d="M4 9.333a8 8 0 0 0 1.6 4.8 1.333 1.333 0 0 0 2.133-1.6 5.33 5.33 0 0 1-1.066-3.2M5.334 4v5.333"/></svg>