<svg xmlns="http://www.w3.org/2000/svg" width="16" height="16" fill="none" viewBox="0 0 16 16"><path stroke="#467efc" stroke-linecap="round" stroke-linejoin="round" stroke-width="1.333" d="M4 14.666a1.333 1.333 0 0 1-1.333-1.333V2.666A1.333 1.333 0 0 1 4 1.333h5.333a1.6 1.6 0 0 1 1.136.47l2.392 2.393a1.6 1.6 0 0 1 .472 1.137v8A1.333 1.333 0 0 1 12 14.666z"/><path stroke="#467efc" stroke-linecap="round" stroke-linejoin="round" stroke-width="1.333" d="M9.334 1.333v3.333a.667.667 0 0 0 .666.667h3.334M6.667 6H5.334M10.667 8.667H5.334M10.667 11.333H5.334"/></svg>